<svg width="332" height="352" viewBox="0 0 332 352" fill="none" xmlns="http://www.w3.org/2000/svg">
<path d="M309.231 312.685C264.312 308.889 237.039 221.113 134.224 126.082L140.095 117.613C203.825 168.856 289.134 293.768 326.027 283.011L309.231 312.685Z" fill="#1E5023"/>
<path fill-rule="evenodd" clip-rule="evenodd" d="M10.2609 58.1102C16.6129 62.6166 32.1886 65.9876 41.7766 62.0863C76.957 47.772 107.007 75.6056 110.671 97.8725C115.703 128.444 158.962 120.785 119.466 49.3625C115.069 41.41 89.4166 14.3715 77.6898 19.143C89.9052 2.44278 125.013 -17.305 156.113 27.0955C170.038 46.9766 166.374 46.9766 175.169 88.3295C178.833 107.681 183.231 130.566 192.759 101.849C208.59 54.1339 184.452 19.4078 176.634 8.80453C191.537 5.88862 216.45 8.86101 228.672 27.0955C252.126 62.0863 238.2 131.273 238.2 131.273C238.2 131.273 223.542 186.304 255.79 139.225C288.039 92.1468 270.449 66.0626 261.654 41.4099C276.556 39.2893 305.155 45.9413 316.623 73.2199C335.679 118.549 338.013 139.999 312.958 190.121C289.505 237.041 271.182 237.041 238.2 220.341C205.477 203.771 226.229 233.065 234.535 248.174C252.126 257.717 246.995 302.251 131.193 318.156C101.381 322.251 71.8265 288.732 61.5656 268.851C91.6154 281.575 134.125 273.622 163.442 255.332C192.759 237.041 188.361 220.341 151.715 233.065C119.398 244.286 84.2863 252.946 61.5656 255.332C38.8449 257.717 37.379 247.379 37.379 228.293C37.379 214.382 32.2486 206.291 20.5218 200.459C7.32923 185.35 0 171.035 0 171.035C0 171.035 147.318 191.712 119.466 163.878C105.76 150.18 92.2557 142.069 66.696 147.178C38.8449 152.745 10.261 118.549 13.9256 101.849C18.2416 82.1799 17.3459 70.304 10.2609 58.1102ZM134.858 206.026C159.044 201.255 93.8142 225.907 71.0936 217.16C48.3729 208.412 110.671 210.798 134.858 206.026Z" fill="#3D8831"/>
</svg>
