<svg width="60" height="56" viewBox="0 0 60 56" fill="none" xmlns="http://www.w3.org/2000/svg">
<path d="M56.0538 52.2C48.0597 51.1443 44.8964 40.1811 28.3064 27.3372L29.5285 26.3925C39.9635 33.4284 52.8178 49.6482 59.6579 48.8396L56.0538 52.2Z" fill="#1E5023"/>
<path fill-rule="evenodd" clip-rule="evenodd" d="M1.85438 9.6788C3.00234 10.4294 5.81722 10.9909 7.54999 10.3411C13.9079 7.95687 19.3386 12.5928 20.0009 16.3016C20.9101 21.3936 28.728 20.1179 21.5903 8.22178C20.7956 6.89722 16.1596 2.39371 14.0403 3.18845C16.2479 0.406868 22.5927 -2.88231 28.2131 4.513C30.7298 7.8244 30.0675 7.8244 31.657 14.7121C32.3192 17.9352 33.114 21.747 34.8359 16.9639C37.697 9.01651 33.3348 3.23256 31.9219 1.46648C34.6152 0.980806 39.1174 1.47589 41.3263 4.51301C45.5649 10.3411 43.0482 21.8647 43.0482 21.8647C43.0482 21.8647 40.3991 31.0307 46.2271 23.1893C52.0552 15.3479 48.8763 11.0034 47.2868 6.89722C49.9801 6.544 55.1485 7.65196 57.221 12.1955C60.6648 19.7455 61.0866 23.3182 56.5587 31.6665C52.3201 39.4814 49.0087 39.4814 43.0482 36.6998C37.1344 33.94 40.8848 38.8191 42.3859 41.3358C45.5649 42.9252 44.6377 50.3428 23.7096 52.9919C18.3219 53.6739 12.9807 48.091 11.1263 44.7796C16.557 46.8989 24.2394 45.5744 29.5377 42.5279C34.8359 39.4814 34.0412 36.6998 27.4184 38.8191C21.5779 40.6881 15.2325 42.1305 11.1263 42.5279C7.02016 42.9252 6.75524 41.2033 6.75524 38.0244C6.75524 35.7073 5.82806 34.3598 3.70876 33.3884C1.32456 30.8717 0 28.4875 0 28.4875C0 28.4875 26.6236 31.9314 21.5903 27.2954C19.1133 25.014 16.6727 23.663 12.0535 24.5139C7.02017 25.4411 1.85439 19.7454 2.51667 16.9639C3.29667 13.6878 3.13479 11.7098 1.85438 9.6788ZM24.3719 34.3156C28.743 33.5209 16.9544 37.627 12.8482 36.17C8.74209 34.713 20.0009 35.1103 24.3719 34.3156Z" fill="#3D8831"/>
</svg>
