<svg width="53" height="44" viewBox="0 0 53 44" fill="none" xmlns="http://www.w3.org/2000/svg">
<g filter="url(#filter0_d)">
<path d="M31.6212 13.3589C29.9344 1.27072 43.8082 2.04751 40.4209 25.0407" stroke="url(#paint0_linear)" stroke-width="3"/>
<path d="M7.84756 23.2859L8.54772 21.8248L20.4855 25.6791L24.4968 34.5688L7.84756 23.2859Z" fill="url(#paint1_linear)"/>
<path d="M15.5193 16.5317C15.2312 15.9264 15.6144 15.2141 16.2769 15.1117C23.7485 13.9562 24.3914 13.5976 28.7211 7.96473C29.1323 7.42985 29.9466 7.44132 30.3358 7.99239L40.8726 22.9126C42.5694 25.3153 41.8357 28.6564 39.2884 30.1271L30.4089 35.2536C27.8823 36.7124 24.6485 35.707 23.3944 33.0728L15.5193 16.5317Z" fill="#C4C4C4"/>
<path d="M15.5193 16.5317C15.2312 15.9264 15.6144 15.2141 16.2769 15.1117C23.7485 13.9562 24.3914 13.5976 28.7211 7.96473C29.1323 7.42985 29.9466 7.44132 30.3358 7.99239L40.8726 22.9126C42.5694 25.3153 41.8357 28.6564 39.2884 30.1271L30.4089 35.2536C27.8823 36.7124 24.6485 35.707 23.3944 33.0728L15.5193 16.5317Z" fill="url(#paint2_linear)"/>
<g filter="url(#filter1_d)">
<path d="M9.36258 28.3421C9.44026 29.766 8.84271 30.1551 7.88775 30.2072C6.93278 30.2593 6.4114 29.9313 6.33372 28.5073C6.25604 27.0833 6.78628 26.8634 7.60643 25.0505C8.52478 26.9068 9.28489 26.9181 9.36258 28.3421Z" fill="#A9A3E8"/>
</g>
</g>
<defs>
<filter id="filter0_d" x="-3.7616" y="0.314331" width="58" height="49.4908" filterUnits="userSpaceOnUse" color-interpolation-filters="sRGB">
<feFlood flood-opacity="0" result="BackgroundImageFix"/>
<feColorMatrix in="SourceAlpha" type="matrix" values="0 0 0 0 0 0 0 0 0 0 0 0 0 0 0 0 0 0 127 0"/>
<feOffset dy="2"/>
<feGaussianBlur stdDeviation="2"/>
<feColorMatrix type="matrix" values="0 0 0 0 0 0 0 0 0 0 0 0 0 0 0 0 0 0 0.2 0"/>
<feBlend mode="normal" in2="BackgroundImageFix" result="effect1_dropShadow"/>
<feBlend mode="normal" in="SourceGraphic" in2="effect1_dropShadow" result="shape"/>
</filter>
<filter id="filter1_d" x="2.14948" y="22.9647" width="11.3102" height="13.3219" filterUnits="userSpaceOnUse" color-interpolation-filters="sRGB">
<feFlood flood-opacity="0" result="BackgroundImageFix"/>
<feColorMatrix in="SourceAlpha" type="matrix" values="0 0 0 0 0 0 0 0 0 0 0 0 0 0 0 0 0 0 127 0"/>
<feOffset dy="2"/>
<feGaussianBlur stdDeviation="2"/>
<feColorMatrix type="matrix" values="0 0 0 0 0 0 0 0 0 0 0 0 0 0 0 0 0 0 0.2 0"/>
<feBlend mode="normal" in2="BackgroundImageFix" result="effect1_dropShadow"/>
<feBlend mode="normal" in="SourceGraphic" in2="effect1_dropShadow" result="shape"/>
</filter>
<linearGradient id="paint0_linear" x1="31.5679" y1="4.82503" x2="42.5348" y2="23.8203" gradientUnits="userSpaceOnUse">
<stop stop-color="#EEEEEE"/>
<stop offset="1" stop-color="#737373"/>
</linearGradient>
<linearGradient id="paint1_linear" x1="14.3719" y1="22.3027" x2="10.8053" y2="26.9428" gradientUnits="userSpaceOnUse">
<stop stop-color="#E6E6E6"/>
<stop offset="0.651042" stop-color="#7A7A7A"/>
<stop offset="1" stop-color="#545454"/>
</linearGradient>
<linearGradient id="paint2_linear" x1="44.033" y1="27.3878" x2="25.7212" y2="37.9601" gradientUnits="userSpaceOnUse">
<stop stop-color="#737373"/>
<stop offset="0.291667" stop-color="#C4C4C4"/>
<stop offset="0.677083" stop-color="#D9D9D9"/>
<stop offset="1" stop-color="#858585"/>
</linearGradient>
</defs>
</svg>
