<svg width="55" height="46" viewBox="0 0 55 46" fill="none" xmlns="http://www.w3.org/2000/svg">
<g filter="url(#filter0_d)">
<path d="M33.4804 13.7933C31.7936 1.70517 45.6673 2.48196 42.2801 25.4752" stroke="url(#paint0_linear)" stroke-width="3"/>
<path d="M9.70663 23.7207L10.4068 22.2596L22.3446 26.1139L26.3558 35.0036L9.70663 23.7207Z" fill="url(#paint1_linear)"/>
<path d="M17.3785 16.9664C17.0903 16.3611 17.4735 15.6488 18.1361 15.5464C25.6077 14.3909 26.2505 14.0323 30.5803 8.39943C30.9914 7.86454 31.8057 7.87601 32.1949 8.42708L42.7317 23.3473C44.4285 25.75 43.6949 29.091 41.1475 30.5617L32.268 35.6883C29.7414 37.1471 26.5077 36.1417 25.2535 33.5075L17.3785 16.9664Z" fill="#C4C4C4"/>
<path d="M17.3785 16.9664C17.0903 16.3611 17.4735 15.6488 18.1361 15.5464C25.6077 14.3909 26.2505 14.0323 30.5803 8.39943C30.9914 7.86454 31.8057 7.87601 32.1949 8.42708L42.7317 23.3473C44.4285 25.75 43.6949 29.091 41.1475 30.5617L32.268 35.6883C29.7414 37.1471 26.5077 36.1417 25.2535 33.5075L17.3785 16.9664Z" fill="url(#paint2_linear)"/>
<g filter="url(#filter1_d)">
<path d="M11.2216 28.777C11.2993 30.201 10.7018 30.59 9.74682 30.6421C8.79185 30.6942 8.27047 30.3662 8.19279 28.9422C8.11511 27.5183 8.64535 27.2984 9.4655 25.4855C10.3839 27.3417 11.144 27.353 11.2216 28.777Z" fill="#A9A3E8"/>
</g>
<g filter="url(#filter2_d)">
<path d="M8.95932 32.9463C9.037 34.3703 8.43945 34.7593 7.48449 34.8114C6.52952 34.8635 6.00814 34.5355 5.93046 33.1115C5.85278 31.6876 6.38302 31.4677 7.20317 29.6548C8.12152 31.511 8.88163 31.5223 8.95932 32.9463Z" fill="#A9A3E8"/>
</g>
</g>
<defs>
<filter id="filter0_d" x="-3.65356" y="0.748779" width="58" height="50.502" filterUnits="userSpaceOnUse" color-interpolation-filters="sRGB">
<feFlood flood-opacity="0" result="BackgroundImageFix"/>
<feColorMatrix in="SourceAlpha" type="matrix" values="0 0 0 0 0 0 0 0 0 0 0 0 0 0 0 0 0 0 127 0"/>
<feOffset dy="2"/>
<feGaussianBlur stdDeviation="2"/>
<feColorMatrix type="matrix" values="0 0 0 0 0 0 0 0 0 0 0 0 0 0 0 0 0 0 0.2 0"/>
<feBlend mode="normal" in2="BackgroundImageFix" result="effect1_dropShadow"/>
<feBlend mode="normal" in="SourceGraphic" in2="effect1_dropShadow" result="shape"/>
</filter>
<filter id="filter1_d" x="4.00854" y="23.3997" width="11.3102" height="13.3219" filterUnits="userSpaceOnUse" color-interpolation-filters="sRGB">
<feFlood flood-opacity="0" result="BackgroundImageFix"/>
<feColorMatrix in="SourceAlpha" type="matrix" values="0 0 0 0 0 0 0 0 0 0 0 0 0 0 0 0 0 0 127 0"/>
<feOffset dy="2"/>
<feGaussianBlur stdDeviation="2"/>
<feColorMatrix type="matrix" values="0 0 0 0 0 0 0 0 0 0 0 0 0 0 0 0 0 0 0.2 0"/>
<feBlend mode="normal" in2="BackgroundImageFix" result="effect1_dropShadow"/>
<feBlend mode="normal" in="SourceGraphic" in2="effect1_dropShadow" result="shape"/>
</filter>
<filter id="filter2_d" x="1.74622" y="27.569" width="11.3102" height="13.3219" filterUnits="userSpaceOnUse" color-interpolation-filters="sRGB">
<feFlood flood-opacity="0" result="BackgroundImageFix"/>
<feColorMatrix in="SourceAlpha" type="matrix" values="0 0 0 0 0 0 0 0 0 0 0 0 0 0 0 0 0 0 127 0"/>
<feOffset dy="2"/>
<feGaussianBlur stdDeviation="2"/>
<feColorMatrix type="matrix" values="0 0 0 0 0 0 0 0 0 0 0 0 0 0 0 0 0 0 0.2 0"/>
<feBlend mode="normal" in2="BackgroundImageFix" result="effect1_dropShadow"/>
<feBlend mode="normal" in="SourceGraphic" in2="effect1_dropShadow" result="shape"/>
</filter>
<linearGradient id="paint0_linear" x1="33.427" y1="5.25948" x2="44.3939" y2="24.2547" gradientUnits="userSpaceOnUse">
<stop stop-color="#EEEEEE"/>
<stop offset="1" stop-color="#737373"/>
</linearGradient>
<linearGradient id="paint1_linear" x1="16.231" y1="22.7376" x2="12.6644" y2="27.3776" gradientUnits="userSpaceOnUse">
<stop stop-color="#E6E6E6"/>
<stop offset="0.651042" stop-color="#7A7A7A"/>
<stop offset="1" stop-color="#545454"/>
</linearGradient>
<linearGradient id="paint2_linear" x1="45.8921" y1="27.8224" x2="27.5803" y2="38.3948" gradientUnits="userSpaceOnUse">
<stop stop-color="#737373"/>
<stop offset="0.291667" stop-color="#C4C4C4"/>
<stop offset="0.677083" stop-color="#D9D9D9"/>
<stop offset="1" stop-color="#858585"/>
</linearGradient>
</defs>
</svg>
