<svg width="102" height="100" viewBox="0 0 102 100" fill="none" xmlns="http://www.w3.org/2000/svg">
<circle cx="52" cy="50" r="50" fill="black"/>
<path d="M93.4011 90.3512C80.0776 88.5917 74.8055 70.3196 47.1555 48.9132L49.1923 47.3386C66.5839 59.0652 88.0078 86.0982 99.408 84.7506L93.4011 90.3512Z" fill="#1B441F"/>
<path fill-rule="evenodd" clip-rule="evenodd" d="M3.09064 20.1313C5.00389 21.3823 9.69537 22.3181 12.5833 21.2351C23.1798 17.2615 32.231 24.988 33.3348 31.1693C34.8502 39.656 47.88 37.5298 35.9839 17.703C34.6593 15.4954 26.9327 7.98952 23.4005 9.31407C27.0799 4.67811 37.6544 -0.803857 47.0219 11.5217C51.2163 17.0407 50.1125 17.0407 52.7616 28.5202C53.8654 33.892 55.19 40.245 58.0599 32.2731C62.8283 19.0275 55.5579 9.3876 53.2031 6.44413C57.6919 5.63468 65.1957 6.45981 68.8771 11.5217C75.9414 21.2351 71.747 40.4412 71.747 40.4412C71.747 40.4412 67.3318 55.7178 77.0452 42.6488C86.7587 29.5799 81.4604 22.3389 78.8113 15.4954C83.3001 14.9067 91.9142 16.7533 95.3683 24.3258C101.108 36.9091 101.811 42.8636 94.2645 56.7775C87.2002 69.8023 81.6812 69.8023 71.747 65.1664C61.8906 60.5667 68.1412 68.6985 70.6432 72.893C75.9414 75.5421 74.3961 87.9046 39.516 92.3198C30.5365 93.4565 21.6345 84.1517 18.5439 78.6327C27.595 82.1649 40.3991 79.9573 49.2295 74.8798C58.0599 69.8023 56.7353 65.1664 45.6973 68.6985C35.9632 71.8135 25.3874 74.2175 18.5439 74.8798C11.7003 75.5421 11.2587 72.6722 11.2587 67.374C11.2587 63.5122 9.71343 61.2663 6.18127 59.6474C2.2076 55.4529 0 51.4792 0 51.4792C0 51.4792 44.3727 57.219 35.9839 49.4924C31.8555 45.6899 27.7879 43.4382 20.0892 44.8564C11.7003 46.4017 3.09065 36.9091 4.19445 32.2731C5.49446 26.8131 5.22465 23.5163 3.09064 20.1313ZM40.6198 61.1927C47.9049 59.8681 28.2573 66.7117 21.4137 64.2833C14.5702 61.855 33.3348 62.5172 40.6198 61.1927Z" fill="#0B410D"/>
</svg>
